<svg xmlns="http://www.w3.org/2000/svg" xmlns:xlink="http://www.w3.org/1999/xlink" id="Layer_1" x="0" y="0" enable-background="new 0 0 16 16" version="1.1" viewBox="0 0 16 16" xml:space="preserve"><style type="text/css">.st0{fill:#f6f6f6;fill-opacity:0}.st1{fill:#0078d7}.st2{fill:#fff}</style><g><g id="canvas_5_"><path d="M16.5,16.3H-0.5V-0.5h17.1V16.3z" class="st0"/></g><g id="iconBg_8_"><g><rect width="1.1" height="3.2" x="7.9" y="7.9" class="st1"/><path d="M7.7,0.5c-3.3,0-6.1,1.3-6.1,2.4V13c0,1.3,3.5,2.4,6.7,2.4s5.9-1.1,5.9-2.3V2.9C14.2,1.8,10.9,0.5,7.7,0.5z M7.9,1.5c2.3,0,4.2,0.5,4.2,1.2s-1.9,1.2-4.2,1.2S3.7,3.4,3.7,2.6S5.6,1.5,7.9,1.5z" class="st1"/></g></g><path d="M12.3,9.7c-0.4,0-0.6,0.2-0.6,0.8v0.9c0,0.6-0.1,0.9-0.4,1.3C11,12.9,10.5,13,9.9,13v-0.8 c0.2,0,0.4-0.1,0.5-0.2c0.1-0.1,0.2-0.3,0.2-0.5v-0.9c0-0.6,0.2-1.2,0.6-1.3l0,0c-0.4-0.2-0.6-0.6-0.6-1.4V6.8 c0-0.5-0.2-0.7-0.6-0.7V5.2c0.1,0,0.2,0,0.3,0c0.4,0,0.8,0.2,1.1,0.4c0.2,0.2,0.4,0.6,0.4,1.3v0.9c0,0.5,0.2,0.8,0.6,0.8L12.3,9.7 L12.3,9.7z M5.8,12.9c-0.6,0-1.1-0.1-1.4-0.3C4.2,12.4,4,12,4,11.3v-1.1c0-0.5-0.2-0.8-0.6-0.8V8.7C3.8,8.7,4,8.4,4,7.9V6.9 C4,6.3,4.1,6,4.4,5.7c0.3-0.2,0.7-0.3,1.4-0.3v0.8c-0.4,0-0.6,0.2-0.6,0.7v0.9c0,0.6-0.2,1.2-0.6,1.4l0,0c0.4,0.2,0.6,0.6,0.6,1.4 v0.9c0,0.3,0.1,0.5,0.2,0.6c0.1,0.1,0.3,0.2,0.5,0.2L5.8,12.9L5.8,12.9z" class="st2"/></g></svg>